#!OML:ASF H:\Dans Jumps\Project 1\Capture day 1\Session 1\subject.ASF
:FULLY-SPECIFIED
:DEGREES
381
root 0.790369 18.4573 -1.62319 -0.58249 6.22491 -0.345466
lowerback 3.73429 1.105 -0.988176
upperback 4.23673 1.43298 1.83643
thorax 2.19052 0.665695 2.4162
lowerneck -8.59936 -2.52323 -4.07781
upperneck 32.1791 -3.54604 2.73005
head 12.109 -1.69971 1.30395
rclavicle -8.24956e-015 3.18055e-015
rhumerus -2.71388 -19.3615 -88.3978
rradius 20.3629
rwrist 37.908
rhand -26.0694 -23.6978
rfingers 7.12502
rthumb 0.478687 -53.677
lclavicle -8.24956e-015 3.18055e-015
lhumerus 1.28319 -14.0847 90.7575
lradius 29.7141
lwrist 21.6819
lhand -26.7689 -10.4172
lfingers 7.12502
lthumb -0.196862 19.5624
rfemur -24.4784 -4.31258 16.4555
rtibia 25.958
rfoot 18.5036 -4.25473
rtoes 17.8062
lfemur -24.1091 5.79918 -20.9438
ltibia 20.1404
lfoot 21.3253 -6.17213
ltoes 0.693798
382
root 0.789006 18.1728 -1.42418 -1.41333 6.19544 -0.475419
lowerback 3.88283 1.15175 -0.914757
upperback 4.22517 1.49636 1.87761
thorax 2.09313 0.699906 2.41263
lowerneck -8.71234 -2.55691 -4.14706
upperneck 32.4827 -3.61458 2.82892
head 12.264 -1.7249 1.34588
rclavicle 2.68359e-015 2.38542e-015
rhumerus -2.66416 -19.8933 -88.374
rradius 20.0325
rwrist 38.482
rhand -26.2169 -23.7643
rfingers 7.12502
rthumb 0.33629 -53.7438
lclavicle 2.68359e-015 2.38542e-015
lhumerus 1.0019 -13.4079 90.4796
lradius 29.5049
lwrist 21.596
lhand -27.0139 -10.602
lfingers 7.12502
lthumb -0.433552 19.3773
rfemur -24.0874 -4.53645 16.6693
rtibia 27.7666
rfoot 15.6876 -1.93184
rtoes 16.177
lfemur -23.8374 5.74274 -20.7556
ltibia 21.9691
lfoot 19.1144 -7.38627
ltoes 0.537067
383
root 0.786549 17.8819 -1.23143 -2.28063 6.14492 -0.608844
lowerback 4.10773 1.19989 -0.856626
upperback 4.19623 1.56178 1.91676
thorax 1.93484 0.735413 2.41318
lowerneck -8.82526 -2.58687 -4.20726
upperneck 32.7455 -3.68369 2.93986
head 12.4034 -1.74792 1.39067
rclavicle -1.67973e-014 1.63003e-014
rhumerus -2.62988 -20.4404 -88.3586
rradius 19.735
rwrist 39.0494
rhand -26.3432 -23.859
rfingers 7.12502
rthumb 0.214234 -53.8386
lclavicle -1.67973e-014 1.63003e-014
lhumerus 0.740107 -12.6774 90.1809
lradius 29.1949
lwrist 21.3437
lhand -27.2909 -10.8069
lfingers 7.12502
lthumb -0.701012 19.1717
rfemur -23.7052 -4.69473 16.8576
rtibia 29.947
rfoot 11.5259 0.501841
rtoes 13.7942
lfemur -23.6001 5.74265 -20.5545
ltibia 24.2731
lfoot 15.2814 -8.77005
ltoes -0.169448
384
root 0.78331 17.5921 -1.04798 -3.17565 6.0677 -0.748045
lowerback 4.41981 1.24895 -0.804859
upperback 4.16097 1.62883 1.95426
thorax 1.72138 0.772074 2.41293
lowerneck -8.96134 -2.61224 -4.2417
upperneck 32.986 -3.74783 3.03932
head 12.5385 -1.76685 1.42699
rclavicle 2.1419e-014 2.78299e-015
rhumerus -2.57696 -21.0291 -88.3707
rradius 19.4678
rwrist 39.6606
rhand -26.4486 -23.9858
rfingers 7.12502
rthumb 0.112435 -53.9655
lclavicle 2.1419e-014 2.78299e-015
lhumerus 0.512714 -11.8964 89.8641
lradius 28.8013
lwrist 20.9755
lhand -27.5967 -11.0111
lfingers 7.12502
lthumb -0.996417 18.9663
rfemur -23.3579 -4.72638 17.0103
rtibia 32.4445
rfoot 6.3389 2.38904
rtoes 11.1487
lfemur -23.4289 5.75551 -20.3306
ltibia 27.007
lfoot 10.0626 -9.6141
ltoes -1.21037
385
root 0.77969 17.3103 -0.875969 -4.09075 5.96431 -0.877159
lowerback 4.82435 1.30155 -0.764283
upperback 4.13815 1.70085 1.98392
thorax 1.46921 0.81123 2.40813
lowerneck -9.14774 -2.63619 -4.21971
upperneck 33.2145 -3.80505 3.08873
head 12.6774 -1.78144 1.43451
rclavicle 2.04748e-014 -3.97569e-015
rhumerus -2.46174 -21.6932 -88.4295
rradius 19.2283
rwrist 40.3446
rhand -26.5393 -24.1574
rfingers 7.12502
rthumb 0.0248438 -54.1372
lclavicle 2.04748e-014 -3.97569e-015
lhumerus 0.327951 -11.0958 89.5317
lradius 28.3646
lwrist 20.5768
lhand -27.9525 -11.2239
lfingers 7.12502
lthumb -1.34002 18.7516
rfemur -23.0609 -4.63154 17.1172
rtibia 35.193
rfoot 0.771898 3.34123
rtoes 8.6499
lfemur -23.3344 5.76824 -20.1062
ltibia 30.0881
lfoot 4.24462 -9.41474
ltoes -2.445
386
root 0.775649 17.0479 -0.717689 -4.98558 5.84753 -0.970055
lowerback 5.30167 1.3537 -0.76029
upperback 4.13941 1.77131 2.00281
thorax 1.2012 0.848835 2.41075
lowerneck -9.3858 -2.65402 -4.10918
upperneck 33.4079 -3.84025 3.04238
head 12.8079 -1.78672 1.39138
rclavicle -3.12092e-014 -9.14409e-015
rhumerus -2.24758 -22.4309 -88.5478
rradius 19.0204
rwrist 41.0984
rhand -26.6089 -24.4134
rfingers 7.12502
rthumb -0.0423049 -54.3932
lclavicle -3.12092e-014 -9.14409e-015
lhumerus 0.197709 -10.27 89.1939
lradius 27.9134
lwrist 20.2164
lhand -28.3502 -11.4379
lfingers 7.12502
lthumb -1.72415 18.5348
rfemur -22.8966 -4.50738 17.1789
rtibia 38.1246
rfoot -4.43164 3.4116
rtoes 6.80352
lfemur -23.3876 5.83382 -19.9375
ltibia 33.4163
lfoot -1.21832 -8.17472
ltoes -3.60691
387
root 0.770374 16.8108 -0.573739 -5.69005 5.72686 -0.94419
lowerback 5.70448 1.40602 -0.887069
upperback 4.14648 1.83635 1.99132
thorax 0.978338 0.880945 2.45702
lowerneck -9.71285 -2.66414 -3.93923
upperneck 33.5797 -3.85172 2.92454
head 12.9449 -1.78222 1.31172
rclavicle -4.02539e-015 -9.93923e-015
rhumerus -1.90116 -23.195 -88.7384
rradius 18.8563
rwrist 41.8685
rhand -26.6875 -24.7427
rfingers 7.12502
rthumb -0.118269 -54.7224
lclavicle -4.02539e-015 -9.93923e-015
lhumerus 0.132173 -9.40152 88.8577
lradius 27.4663
lwrist 19.9272
lhand -28.781 -11.7188
lfingers 7.12502
lthumb -2.14024 18.2502
rfemur -23.114 -4.37356 17.1337
rtibia 41.1865
rfoot -8.63692 2.96003
rtoes 5.52106
lfemur -23.7787 5.83912 -19.921
ltibia 36.8788
lfoot -5.61435 -6.18839
ltoes -4.76613
